<svg width="62" height="28" viewBox="0 0 62 28" fill="none" xmlns="http://www.w3.org/2000/svg">
<rect x="2" y="2" width="58" height="24.0415" fill="#EC111A"/>
<path d="M3.95312 4.40405V23.6372H7.40908L7.55934 15.0724L9.06193 23.6372H11.0153L12.5179 15.0724V23.6372H19.1293L19.5801 20.7823H22.2847L22.7355 23.6372H29.4972V17.4766H30.2485L31.7511 23.6372H35.207L33.1034 16.4248C34.2876 15.2353 34.847 14.4376 35.207 12.2175L37.1604 23.6372H41.3676L44.0723 6.65794V23.6372H50.6837V20.1813H47.5283V15.8237H50.6837V12.2175H47.5283V8.01027H50.6837V4.40405H40.9169L39.264 16.7253L37.9117 4.40405H34.0049L34.3055 7.25898C33.7044 5.75638 31.7511 4.40405 30.549 4.40405H25.891V21.2331L23.4868 4.40405H18.6785L16.1241 21.8341V4.40405H11.6163L9.96349 13.8704L8.31064 4.40405H3.95312Z" fill="white"/>
<path d="M51.2847 23.6372V4.40405H54.7407V20.3315H57.7459V23.6372H51.2847Z" fill="white"/>
<path d="M21.0831 9.66308L20.0312 17.3263H22.1349L21.0831 9.66308Z" fill="#EC111A"/>
<path d="M29.4976 13.7201V7.70972C30.8815 8.14666 31.7515 8.91179 31.7515 10.8652C31.7515 12.2175 30.9046 13.5298 29.4976 13.7201Z" fill="#EC111A"/>
</svg>
